<?xml version="1.0" encoding="utf-8"?>
<!-- Generator: Adobe Illustrator 27.5.0, SVG Export Plug-In . SVG Version: 6.00 Build 0)  -->
<svg version="1.1" xmlns="http://www.w3.org/2000/svg" xmlns:xlink="http://www.w3.org/1999/xlink" x="0px" y="0px"
	 viewBox="0 0 750 500" style="enable-background:new 0 0 750 500;" xml:space="preserve">
<g id="Background_Simple">
	<g>
		<path style="fill:#92E3A9;" d="M713.1,133.53c0,0-47.228-76.008-143.16-71.58c-118.057,5.449-98.146,30.993-223.595,38.373
			s-205.885-53.132-280.417,3.69C-8.604,160.834-12.294,314.325,61.5,388.857c73.794,74.532,185.223,5.165,259.755,13.283
			c74.532,8.117,234.665,36.897,323.955,12.545C734.501,390.333,759.591,196.993,713.1,133.53z"/>
		<path style="opacity:0.7;fill:#FFFFFF;" d="M713.1,133.53c0,0-47.228-76.008-143.16-71.58
			c-118.057,5.449-98.146,30.993-223.595,38.373s-205.885-53.132-280.417,3.69C-8.604,160.834-12.294,314.325,61.5,388.857
			c73.794,74.532,185.223,5.165,259.755,13.283c74.532,8.117,234.665,36.897,323.955,12.545
			C734.501,390.333,759.591,196.993,713.1,133.53z"/>
	</g>
</g>
<g id="Radiography">
	<g>
		
			<rect x="429.694" y="103.248" style="fill:none;stroke:#263238;stroke-linecap:round;stroke-linejoin:round;stroke-miterlimit:10;" width="171.365" height="193.349"/>
		
			<rect x="429.694" y="103.248" style="fill:none;stroke:#263238;stroke-linecap:round;stroke-linejoin:round;stroke-miterlimit:10;" width="165.812" height="193.349"/>
		<g>
			<rect x="437.673" y="114.526" style="fill:#263238;stroke:#263238;stroke-miterlimit:10;" width="142.512" height="165.479"/>
			<path style="fill:#969696;stroke:#263238;stroke-miterlimit:10;" d="M448.487,278.491c1.784,0.255,4.079-0.765,4.079-1.784
				c0-1.02-0.255-13.001,0.765-14.785c1.02-1.784,3.314-7.393,3.314-7.393s3.824,11.216,3.824,12.491
				c0,0.889,0.496,8.478,0.796,12.985h34.384c-0.554-7.31-1.842-24.385-2.041-27.77c-0.255-4.333-8.667-21.158-8.667-21.158
				l-4.079-7.647c0,0,2.039-13.001,2.549-17.079c0.51-4.079,5.608-24.727,6.118-33.648c0.51-8.922-2.039-30.335-2.039-30.335
				l-4.532-27.841H444.05l11.83,35.488c0,0-2.039,30.08-0.255,42.061c1.784,11.981-1.275,39.002-1.275,39.002
				s-10.451,15.805-10.451,16.824c0,1.02-0.765,18.354-0.51,21.668C443.644,272.883,446.703,278.236,448.487,278.491z"/>
			<path style="fill:#969696;stroke:#263238;stroke-miterlimit:10;" d="M523.074,280.005h22.888
				c-0.535-6.92-2.273-29.836-2.04-32.858c0.274-3.566,0.274-5.212,0.823-7.406c0.549-2.194,13.99-62.267,14.264-65.01
				s6.858-30.448,6.858-32.917c0-1.653,2.458-17.191,4.083-27.287h-35.945l1.688,10.28c0,0-7.132,28.253-6.035,43.615
				c1.097,15.361-0.274,49.101-0.274,55.135c0,6.035-2.469,15.635-2.469,15.635s-6.035,10.698-6.035,13.99
				c0,3.292,2.194,19.201,2.194,20.573V280.005z"/>
			<path style="fill:#FFFFFF;" d="M467.902,204.144l0.285-56.165l-0.76-33.453h-7.193l2.821,34.878l-4.276,61.582
				c0,0-2.851,8.553-1.996,10.264c0.855,1.711,2.851,2.281,4.276,1.14c1.426-1.14,4.562-1.996,6.557-2.851
				c1.996-0.855,3.421-0.285,2.566-3.136C469.328,213.552,467.902,204.144,467.902,204.144z"/>
			<path style="fill:#FFFFFF;" d="M449.086,254.322c0.57-1.14,3.136-6.557,5.132-8.838c1.996-2.281,2.566-3.706,4.847-2.566
				c2.281,1.14,2.566,6.557,3.136,12.259c0.57,5.702,1.711,7.698,1.711,7.698s0.855,2.281,0.855,4.847
				c0,2.014,0.35,8.581,0.501,12.284h3.799c0.089-4.142,0.27-12.636,0.27-13.715c0-1.434-1.274-3.505-1.274-3.505
				s0.319-2.867,0.159-3.982c-0.159-1.115-2.549-7.168-2.867-10.036c-0.319-2.867-0.797-9.398,1.115-8.443
				c1.911,0.956,6.053,12.107,6.531,15.133c0.478,3.027-0.478,5.894,0,7.168c0.478,1.274,1.115,2.071,1.115,2.071
				s-0.478,1.752-0.319,3.345c0.159,1.593,0.637,4.62,0.637,6.213c0,1.014,0.452,3.833,0.78,5.75h2.231
				c0.301-3.994,0.972-12.973,0.972-13.715c0-0.956-0.319-3.186-0.319-3.186s0.956-1.911,0-3.982
				c-0.956-2.071-3.186-9.08-4.142-11.947s-2.867-8.283-0.956-6.85c1.912,1.434,6.053,11.151,6.69,12.903
				c0.637,1.752,0.159,4.779,0.956,5.894c0.797,1.115,0.797,1.115,0.797,1.115s-0.478,1.115,0.159,2.549
				c0.637,1.434,0.797,4.938,0.956,5.894c0.12,0.719,1.052,7.844,1.505,11.325h3.539c-0.741-3.804-2.336-12.099-2.336-13.078
				c0-1.274,0.319-5.416,0.319-6.531c0-1.115-0.956-2.867-0.956-2.867s0.319-1.274-0.478-2.549
				c-0.797-1.274-1.593-2.549-1.593-2.549s-3.982-8.283-4.46-10.036c-0.478-1.752,0.319-2.867,1.434-1.911
				c1.115,0.956,4.46,7.805,5.257,9.558c0.797,1.752,0.797,2.867,1.115,3.823c0.319,0.956,0.319,0.956,0.319,0.956
				s0.159,1.593,1.115,3.345c0.956,1.752,2.389,5.257,2.389,5.257s1.911,6.85,2.23,8.283c0.318,1.434,0.318,9.239,1.115,7.806
				c0.797-1.434,0.797-9.558,0.797-9.558s-1.274-6.053-1.752-9.239c-0.478-3.186-1.593-9.08-2.23-10.354s-2.867-5.416-3.664-6.85
				c-0.797-1.434-3.505-6.531-3.664-7.168c-0.159-0.637-0.796-3.027-1.912-3.823c-1.115-0.797-1.434-1.115-2.389-1.274
				c-0.956-0.159-0.207-1.233-0.661-3.723c0,0-2.566-5.702-6.557-5.987c-3.991-0.285-12.829,4.276-12.259,7.698
				c0.57,3.421,4.847,4.277,4.847,4.277l-6.272,3.421c0,0-3.421,0-4.277,1.711c-0.855,1.711-7.413,12.259-7.413,14.255
				S448.516,255.462,449.086,254.322z"/>
			<path style="fill:#FFFFFF;" d="M552.518,114.526l2.101,11.652c0,0-6.309,34.562-5.212,34.014
				c1.097-0.549,10.972-17.281,11.521-18.653c0.436-1.09,2.085-19.502,2.743-27.013H552.518z"/>
			<path style="fill:#FFFFFF;" d="M561.477,144.008c0,0-10.149,17.007-10.972,18.653c-0.823,1.646-1.92,5.76-2.194,7.681
				c-0.274,1.92-5.486,42.243-5.486,42.243l0.549,18.104c0,0,7.955-49.649,9.326-54.861c1.372-5.212,3.84-14.813,4.938-18.379
				C558.734,153.883,561.477,144.008,561.477,144.008z"/>
			<path style="fill:#FFFFFF;" d="M548.584,162.66c0,0-5.212,34.563-5.76,38.951c-0.549,4.389-0.823,12.618-0.549,14.813
				c0.274,2.195,1.372,19.75,0.549,20.847c-0.823,1.097-2.743,3.017-2.743,3.017s1.097,4.389,0.549,5.76
				c-0.549,1.372-3.017,1.646-5.212,1.372c-2.194-0.274-4.663,0.274-4.389-1.372c0.274-1.646,2.194-6.035,1.92-8.229
				c-0.274-2.195-1.92-1.92,0.274-5.212c2.194-3.292,3.84-10.149,3.84-10.149s3.84-58.701,3.84-59.799
				C540.904,161.563,547.761,158.272,548.584,162.66z"/>
			<path style="fill:#FFFFFF;" d="M526.914,272.108v6.035c0,0.599,0.087,1.277,0.295,1.861h4.37
				c0.012-1.663,0.552-4.891,1.095-5.976c0.549-1.097,2.743,3.84,2.743,4.938c0,0.329-0.076,0.683-0.173,1.039h9.049
				c0.436-1.555,1.729-7.214,0.724-11.737c-1.097-4.938-2.469-14.264-2.469-14.264l-1.92-4.663l-9.875-0.823
				c0,0-6.035,2.469-6.035,4.389c0,1.92-1.372,5.212-0.549,6.583C524.994,260.862,526.914,270.737,526.914,272.108z"/>
			<g>
				<path style="fill:#FFFFFF;" d="M477.565,161.084l5.776-13.302c-1.597-11.342-3.464-24.037-3.464-24.037l-2.049-9.219h-8.04
					l6.383,34.308C476.17,148.835,476.932,156.147,477.565,161.084z"/>
				<path style="fill:#FFFFFF;" d="M483.428,148.402l-5.214,17.959c-0.137,7.221-3.754,39.779-3.754,39.779
					s-3.136,11.119-2.851,12.544c0.285,1.425,4.276,1.425,5.417,1.996c1.14,0.57,2.566-4.847,2.566-5.987s3.991-42.48,4.276-44.761
					c0.285-2.281,1.711-2.281,1.711-4.847C485.579,164.014,484.585,156.635,483.428,148.402z"/>
			</g>
			<g>
				<line style="fill:none;stroke:#FFFFFF;stroke-miterlimit:10;" x1="555.097" y1="271.21" x2="570.816" y2="271.21"/>
				<line style="fill:none;stroke:#FFFFFF;stroke-miterlimit:10;" x1="555.097" y1="267.4" x2="570.816" y2="267.4"/>
				<line style="fill:none;stroke:#FFFFFF;stroke-miterlimit:10;" x1="555.097" y1="263.589" x2="570.816" y2="263.589"/>
			</g>
			<g>
				<line style="fill:none;stroke:#FFFFFF;stroke-miterlimit:10;" x1="492.698" y1="127.836" x2="508.417" y2="127.836"/>
				<line style="fill:none;stroke:#FFFFFF;stroke-miterlimit:10;" x1="492.698" y1="124.025" x2="508.417" y2="124.025"/>
				<line style="fill:none;stroke:#FFFFFF;stroke-miterlimit:10;" x1="492.698" y1="120.215" x2="508.417" y2="120.215"/>
			</g>
		</g>
	</g>
</g>
<g id="Table">
	<g>
		<polygon style="fill:#FFFFFF;stroke:#263238;stroke-linecap:round;stroke-linejoin:round;stroke-miterlimit:10;" points="
			486.617,381.142 486.617,440.578 495.048,440.578 495.048,398.41 704.498,398.41 704.498,440.578 713.088,440.578 
			713.088,381.142 		"/>
		<polygon style="fill:#FFFFFF;stroke:#263238;stroke-linecap:round;stroke-linejoin:round;stroke-miterlimit:10;" points="
			484.214,381.142 484.214,440.578 492.645,440.578 492.645,398.41 702.095,398.41 702.095,440.578 710.685,440.578 
			710.685,381.142 		"/>
		
			<rect x="486.617" y="381.142" style="fill:#FFFFFF;stroke:#263238;stroke-linecap:round;stroke-linejoin:round;stroke-miterlimit:10;" width="226.471" height="22.567"/>
		
			<rect x="486.617" y="381.142" style="fill:#263238;stroke:#263238;stroke-linecap:round;stroke-linejoin:round;stroke-miterlimit:10;" width="226.471" height="4.356"/>
		
			<rect x="483.735" y="376.376" style="fill:#FFFFFF;stroke:#263238;stroke-linecap:round;stroke-linejoin:round;stroke-miterlimit:10;" width="232.235" height="6.612"/>
	</g>
	<g>
		
			<rect x="461.943" y="402.271" style="fill:#FFFFFF;stroke:#263238;stroke-linecap:round;stroke-linejoin:round;stroke-miterlimit:10;" width="8.431" height="38.308"/>
		
			<rect x="459.219" y="402.271" style="fill:#FFFFFF;stroke:#263238;stroke-linecap:round;stroke-linejoin:round;stroke-miterlimit:10;" width="8.431" height="38.308"/>
		
			<rect x="675.703" y="402.271" style="fill:#FFFFFF;stroke:#263238;stroke-linecap:round;stroke-linejoin:round;stroke-miterlimit:10;" width="8.59" height="38.308"/>
		
			<rect x="672.979" y="402.271" style="fill:#FFFFFF;stroke:#263238;stroke-linecap:round;stroke-linejoin:round;stroke-miterlimit:10;" width="8.59" height="38.308"/>
		
			<rect x="457.822" y="381.142" style="fill:#FFFFFF;stroke:#263238;stroke-linecap:round;stroke-linejoin:round;stroke-miterlimit:10;" width="226.471" height="22.567"/>
		
			<rect x="457.822" y="381.142" style="fill:#263238;stroke:#263238;stroke-linecap:round;stroke-linejoin:round;stroke-miterlimit:10;" width="226.471" height="4.356"/>
		
			<rect x="454.94" y="376.376" style="fill:#FFFFFF;stroke:#263238;stroke-linecap:round;stroke-linejoin:round;stroke-miterlimit:10;" width="232.235" height="6.612"/>
	</g>
</g>
<g id="Device">
	<g>
		<g>
			<g>
				<g>
					
						<rect x="587.861" y="359.002" style="fill:#FFFFFF;stroke:#263238;stroke-linecap:round;stroke-linejoin:round;stroke-miterlimit:10;" width="19.909" height="17.825"/>
					
						<rect x="586.472" y="359.002" style="fill:#FFFFFF;stroke:#263238;stroke-linecap:round;stroke-linejoin:round;stroke-miterlimit:10;" width="19.909" height="17.825"/>
					
						<rect x="576.749" y="374.963" style="fill:#FFFFFF;stroke:#263238;stroke-linecap:round;stroke-linejoin:round;stroke-miterlimit:10;" width="31.021" height="1.864"/>
				</g>
				
					<rect x="549.643" y="287.532" style="fill:#FFFFFF;stroke:#263238;stroke-linecap:round;stroke-linejoin:round;stroke-miterlimit:10;" width="97.045" height="73.98"/>
				
					<rect x="547.032" y="287.532" style="fill:#FFFFFF;stroke:#263238;stroke-linecap:round;stroke-linejoin:round;stroke-miterlimit:10;" width="97.045" height="73.98"/>
				
					<rect x="551.8" y="291.167" style="fill:#FFFFFF;stroke:#263238;stroke-linecap:round;stroke-linejoin:round;stroke-miterlimit:10;" width="87.509" height="66.711"/>
				
					<rect x="551.8" y="298.771" style="fill:#FFFFFF;stroke:#263238;stroke-linecap:round;stroke-linejoin:round;stroke-miterlimit:10;" width="87.509" height="59.106"/>
			</g>
			
				<line style="fill:#FFFFFF;stroke:#263238;stroke-linecap:round;stroke-linejoin:round;stroke-miterlimit:10;" x1="604.671" y1="304.678" x2="604.671" y2="352.52"/>
			
				<line style="fill:#FFFFFF;stroke:#263238;stroke-linecap:round;stroke-linejoin:round;stroke-miterlimit:10;" x1="611.449" y1="304.678" x2="632.18" y2="304.678"/>
			
				<line style="fill:#FFFFFF;stroke:#263238;stroke-linecap:round;stroke-linejoin:round;stroke-miterlimit:10;" x1="611.449" y1="309.064" x2="632.18" y2="309.064"/>
			
				<line style="fill:#FFFFFF;stroke:#263238;stroke-linecap:round;stroke-linejoin:round;stroke-miterlimit:10;" x1="611.449" y1="313.449" x2="632.18" y2="313.449"/>
			
				<line style="fill:#FFFFFF;stroke:#263238;stroke-linecap:round;stroke-linejoin:round;stroke-miterlimit:10;" x1="611.449" y1="317.835" x2="632.18" y2="317.835"/>
			
				<line style="fill:#FFFFFF;stroke:#263238;stroke-linecap:round;stroke-linejoin:round;stroke-miterlimit:10;" x1="611.449" y1="322.22" x2="632.18" y2="322.22"/>
			
				<line style="fill:#FFFFFF;stroke:#263238;stroke-linecap:round;stroke-linejoin:round;stroke-miterlimit:10;" x1="611.449" y1="326.606" x2="632.18" y2="326.606"/>
			
				<line style="fill:#FFFFFF;stroke:#263238;stroke-linecap:round;stroke-linejoin:round;stroke-miterlimit:10;" x1="611.449" y1="330.991" x2="632.18" y2="330.991"/>
			
				<line style="fill:#FFFFFF;stroke:#263238;stroke-linecap:round;stroke-linejoin:round;stroke-miterlimit:10;" x1="611.449" y1="335.377" x2="632.18" y2="335.377"/>
			
				<line style="fill:#FFFFFF;stroke:#263238;stroke-linecap:round;stroke-linejoin:round;stroke-miterlimit:10;" x1="611.449" y1="339.762" x2="632.18" y2="339.762"/>
			
				<line style="fill:#FFFFFF;stroke:#263238;stroke-linecap:round;stroke-linejoin:round;stroke-miterlimit:10;" x1="611.449" y1="344.148" x2="632.18" y2="344.148"/>
			
				<line style="fill:#FFFFFF;stroke:#263238;stroke-linecap:round;stroke-linejoin:round;stroke-miterlimit:10;" x1="611.449" y1="348.533" x2="632.18" y2="348.533"/>
			
				<rect x="554.836" y="305.874" style="fill:#FFFFFF;stroke:#263238;stroke-linecap:round;stroke-linejoin:round;stroke-miterlimit:10;" width="40.665" height="27.908"/>
		</g>
		
			<rect x="527.605" y="373.696" style="fill:#FFFFFF;stroke:#263238;stroke-linecap:round;stroke-linejoin:round;stroke-miterlimit:10;" width="70.879" height="3.131"/>
	</g>
</g>
<g id="Poster">
	<g style="opacity:0.3;">
		<g>
			<path style="stroke:#263238;stroke-miterlimit:10;" d="M215.735,286.124l3.633-0.807c0,0,0,18.568,0,20.586
				c0,2.018,1.211,4.844,3.229,2.422c0,0,2.018,2.826,3.229,1.615l1.966-1.135c0,0,2.385,0.982,3.508,0.561
				c1.122-0.421,3.367-3.508,3.367-3.508s0.561,1.684,2.666-0.842c2.105-2.526,2.385-5.612,2.947-7.717
				c0.561-2.105,2.385-13.61,2.946-15.574c0.561-1.964,0-12.347,0-12.347l-0.421-4.49c0,0,9.12-24.835,10.664-30.728
				c1.543-5.893,3.227-12.067,3.788-17.118c0.561-5.051,2.946-15.013,2.946-15.013l0.982-0.421c0,0,0.14,23.712-0.421,26.799
				c-0.561,3.087-4.771,8.839-4.35,16.136c0.421,7.296-2.105,19.644-2.806,23.853c-0.702,4.209-6.033,18.521-3.788,41.953
				c1.303,13.597,3.431,23.714,5.521,31.859h28.751c0.5-2.6,4.927-25.601,5.161-26.537c0.248-0.992,3.968-18.105,3.968-18.105
				s1.488,0.248,1.984,1.488c0.496,1.24,6.942,43.139,6.945,43.155h28.175c2.904-9.739,6.548-23.238,6.548-34.97
				c0-18.105-3.72-40.427-4.712-44.395c-0.992-3.968-1.736-11.657-1.736-11.657s1.488-5.953,0-11.161
				c-1.488-5.208-2.48-7.193-3.72-12.897c-1.24-5.705-2.232-14.385-2.232-15.129c0-0.744,0-9.673,0-9.673s4.712,11.409,6.944,19.345
				s2.232,12.649,4.712,20.09c2.48,7.441,7.689,21.33,8.681,24.306c0.992,2.976-1.24,8.185-0.248,16.121
				c0.992,7.937,1.984,21.578,3.72,23.562c1.736,1.984,3.72-0.248,3.72-0.248s0.744,3.968,2.232,4.464
				c1.488,0.496,3.472-0.992,3.472-0.992s0.496,2.48,2.976,1.488c2.48-0.992,2.976-2.728,2.976-2.728s3.72,1.488,3.224-3.472
				c-0.496-4.96-1.736-11.657-1.736-13.145c0-1.488,0.248-6.201,0.248-6.201s2.48,1.984,4.464,2.232
				c1.984,0.248,3.968,2.232,5.457,0c1.488-2.232,0.248-2.976-2.48-4.712c-2.728-1.736-2.976-2.232-4.96-5.208
				c-1.984-2.976-0.248-3.72-4.464-7.441c-4.216-3.72-6.944-5.456-6.944-8.681c0-3.224,3.224-23.314,0.248-37.699
				c-2.976-14.385-4.464-18.105-4.96-20.338c-0.496-2.232-4.96-19.097-4.96-19.097s3.968-15.625-2.976-28.77
				c-6.945-13.145-16.369-12.153-23.562-15.377c-7.193-3.224-12.897-3.968-13.889-5.952c-0.992-1.984-1.488-5.456-1.488-5.456
				s6.448-8.929,6.697-11.905c0.248-2.976,0.248-2.976,0.248-2.976s3.968-1.488,4.96-9.177c0.992-7.689-4.173-6.336-4.173-6.336
				s0.807-11.302-4.44-18.164s-17.357-6.862-22.605-4.844c-5.247,2.018-10.495,5.651-11.706,11.706
				c-1.211,6.055-0.807,13.321-0.807,13.321s-4.036,0.807-2.826,5.247c1.211,4.44,3.633,6.862,3.633,6.862s1.211,5.651,2.018,8.073
				c0.807,2.422,5.247,7.669,5.247,7.669s0.807,6.055-2.018,8.073c-2.826,2.018-9.688,3.633-19.375,6.862
				c-9.688,3.229-18.568,11.706-20.586,22.605c-2.018,10.899-0.807,19.779-0.807,19.779l-3.633,23.008c0,0-3.633,8.477-4.037,19.779
				c-0.404,11.302-2.422,33.907-2.422,33.907s2.422,1.615-3.229,4.44c-5.651,2.826-6.055,4.844-6.862,6.862
				c-0.807,2.018-1.211,6.055-2.826,7.266c-1.615,1.211-6.862,0-6.055,4.037C210.084,288.546,215.735,286.124,215.735,286.124z"/>
			<path style="fill:#FFFFFF;" d="M214.673,286.856c0.026-0.033,0.04-0.057,0.064-0.089c0.957,0.565,2.118,0.018,2.875-1.042
				c1.13-1.582,6.103-7.46,4.747-7.007c0.904-1.356,2.035-3.165,2.035-3.165s0.904,3.617,0,5.651
				c-0.904,2.034-2.713,5.651-2.035,6.781c0,0-0.678,2.034-0.678,3.843c0,1.372-0.518,7.03-0.078,9.289
				c-0.18,1.198-0.374,2.734-0.374,3.821c0,2.034,0.678,4.521,2.034,1.582c1.356-2.939,1.13-7.912,1.13-7.912l-0.252,0.069
				c0.325-1.318,0.477-2.727,0.477-3.685c0-2.034,0.452-6.329,0.452-6.329s-0.014-0.025-0.036-0.06
				c0.327-0.294,0.59-0.776,0.715-1.522c0.452-2.712,0.452-3.617,1.13-5.877c0.416-1.387,1.511-2.092,2.087-2.692
				c-0.159,1.654-0.181,4.112-0.276,4.494c-0.122,0.49-1.47,2.449-1.225,4.286c0.07,0.522,0.317,0.963,0.642,1.31
				c-0.05,0.057-0.106,0.091-0.152,0.159c0,0-1.102,0.245-1.225,2.082c-0.123,1.837-0.245,3.062-0.735,4.164
				c-0.49,1.102-1.47,2.449,0,3.184c0,0-0.98,0.612-1.225,1.96c-0.13,0.715-0.292,2.014-0.216,3.078
				c-0.236,0.993-0.815,3.65-0.518,4.638c0.367,1.225,0.367,3.429,1.715,2.082c1.347-1.347,1.592-6.369,1.592-6.369
				s-0.204,0.037-0.49,0.066c0.091-0.351,0.195-0.773,0.367-1.291c0.612-1.837,0.98-2.939,0.857-3.552
				c-0.024-0.122-0.08-0.264-0.153-0.404c0.223-0.237,0.388-0.652,0.52-1.31c0.367-1.837,0.122-2.449,0.735-3.429
				c0.612-0.98,1.225-1.592,1.47-3.307c0.245-1.715,0.245-1.715,0.245-1.715c0.857-1.47,0.49-3.062,0.735-4.776
				c0.245-1.715,0.735-5.511,0.735-5.511s-0.04-0.03-0.101-0.075c0.9,0.271,1.77,0.508,2.566,0.633
				c-0.003,0.021-0.014,0.032-0.016,0.054c0,0,0.49,5.879,0.735,8.083c0.108,0.968,0.243,1.613,0.45,2.008
				c-0.269,0.491-0.572,1.174-0.572,1.788c0,1.102-0.123,3.674-0.367,4.899c-0.095,0.473-0.095,1.035,0.014,1.521
				c-0.046,0.023-0.105,0.032-0.137,0.071c0,0-0.857,5.756-0.122,6.124c0.735,0.367,0.98,0.735,1.592-0.857
				c0.612-1.592,1.225-2.694,1.347-3.552c0.122-0.857,0.122-0.857,0.122-0.857s-0.222-0.13-0.533-0.294
				c0.315-0.341,0.276-0.98,1.022-3.135c1.102-3.184,0.735-5.266,0.612-6.246c-0.122-0.98-0.122-0.98-0.122-0.98
				s-0.265-0.016-0.622,0.012c0.167-1.097,0.094-2.584-0.235-4.298c-0.485-2.522-0.661-4.028-0.714-4.553
				c0.363-0.189,0.67-0.469,0.897-0.884c1.185-2.172-0.217-4.688-0.742-6.043c0.485-0.766,0.881-1.943,1.646-4.129
				c1.582-4.521,5.199-14.467,6.329-24.865c1.13-10.398,2.26-13.789,2.26-13.789s2.26-3.164,2.035-6.555
				c-0.075-1.125-0.529-2.072-1.236-2.832c0.513-0.337,0.61-0.848,1.01-1.914c0.678-1.809,1.13-1.809,0.904-4.973
				c-0.226-3.165-2.713-2.486-2.713-2.486s-0.452-8.364,1.356-15.597c1.808-7.233,4.295-15.371,4.747-18.988
				s3.391-15.823,3.391-15.823l5.651-1.13c0,0,2.068,2.395,3.334,4.164c0.197,0.434,0.466,0.85,0.798,1.249
				c0.025,0.049,0.043,0.092,0.062,0.135c-2.304,1.357-3.682,2.992-3.682,4.894c0,0.715,0.203,1.39,0.567,2.029
				c-2.369,1.393-3.543,3.423-3.209,5.652c0.113,0.754,0.39,1.483,0.803,2.179c-1.166,1.37-1.673,3.01-1.391,4.752
				c0.216,1.328,0.846,2.59,1.812,3.737c-1.536,2.614-1.905,5.29-0.967,7.605c0.271,0.669,0.653,1.272,1.108,1.824
				c-0.078,0.12-0.15,0.247-0.186,0.393c-0.066,0.262-0.769,3.19-0.644,6.675c-0.456,5.157-0.302,12.395,3.585,15.157
				c2.046,1.453,4.22,2.198,6.379,2.198c0.627,0,1.252-0.063,1.873-0.189c3.105-0.632,5.967-2.852,8.059-6.25
				c1.264-2.055,2.17-5.115,3.219-8.658c1.095-3.697,2.277-7.674,3.988-10.872c0.033-0.043,0.065-0.086,0.097-0.129l-0.216,8.56
				h-0.323c-0.739,0-1.338,0.599-1.338,1.338v0.062c0,0.739,0.599,1.338,1.338,1.338h0.254l-0.048,1.917h-0.85
				c-0.739,0-1.338,0.599-1.338,1.338v0.88c0,0.739,0.599,1.338,1.338,1.338h0.76l-0.09,3.555h-1.334
				c-0.739,0-1.338,0.599-1.338,1.338v0.88c0,0.739,0.599,1.338,1.338,1.338h1.245l-0.078,3.083h-2.106
				c-0.739,0-1.338,0.599-1.338,1.338v0.879c0,0.739,0.599,1.338,1.338,1.338h2.016l-0.061,2.419h-1.955
				c-0.739,0-1.338,0.599-1.338,1.338v0.879c0,0.739,0.599,1.338,1.338,1.338h1.866l-0.058,2.286h-2.721
				c-0.739,0-1.338,0.599-1.338,1.338v0.88c-7.265-5.014-15.438-6.808-20.023-3.02c-4.585,3.788-5.781,11.562-3.788,14.752
				c1.994,3.19,6.579,4.984,6.778,7.376c0.116,1.395-0.102,3.127,0.245,4.726c-1.819-0.268-4.147-0.263-4.927,1.297
				c-1.343,2.686,0,5.947,0,5.947s-3.262,0.192-2.878,2.686c0.384,2.494,2.11,4.221,2.11,4.221s3.645,32.038,4.988,44.316
				c0.916,8.377,1.118,17.911,0.788,23.675h8.561c-1.379-8.998-5.895-59.319-5.895-61.469c0-2.302,0-3.453,0-3.453
				s3.453-1.343,2.302-3.645c-1.151-2.302-2.686-2.878-1.918-4.413c0.767-1.535,3.601-2.923,3.601-2.923s-2.791,1.794,0.399,6.18
				c3.19,4.386,7.974,5.383,10.964,4.386c2.99-0.997,6.579-6.18,6.579-6.18l1.529-0.382l1.529,0.382c0,0,3.588,5.183,6.578,6.18
				c2.99,0.997,7.775,0,10.964-4.386c2.011-2.765,1.645-4.498,1.099-5.403c0.845,0.548,1.848,1.322,2.26,2.146
				c0.767,1.535-0.767,2.11-1.918,4.413c-1.151,2.302,2.302,3.645,2.302,3.645s0,1.151,0,3.453c0,2.15-4.516,52.471-5.895,61.469
				h8.561c-0.33-5.764-0.128-15.298,0.788-23.675c1.343-12.278,4.988-44.316,4.988-44.316s1.727-1.727,2.11-4.221
				c0.384-2.494-2.878-2.686-2.878-2.686s1.343-3.261,0-5.947c-0.688-1.376-2.581-1.541-4.267-1.378
				c0.323-1.576,0.112-3.273,0.227-4.644c0.199-2.392,4.784-4.186,6.778-7.376c1.994-3.19,0.797-10.964-3.788-14.752
				c-4.562-3.769-12.676-2.008-19.914,2.948v-0.807c0-0.739-0.599-1.338-1.338-1.338h-3.622l-0.042-2.286h2.751
				c0.739,0,1.338-0.599,1.338-1.338v-0.879c0-0.739-0.599-1.338-1.338-1.338h-2.817l-0.045-2.419h2.861
				c0.739,0,1.338-0.599,1.338-1.338v-0.879c0-0.739-0.599-1.338-1.338-1.338h-2.927l-0.057-3.083h2.044
				c0.739,0,1.338-0.599,1.338-1.338v-0.88c0-0.739-0.599-1.338-1.338-1.338h-2.11l-0.066-3.555h1.512
				c0.739,0,1.338-0.599,1.338-1.338v-0.88c0-0.739-0.599-1.338-1.338-1.338h-1.577l-0.035-1.917h0.968
				c0.739,0,1.338-0.599,1.338-1.338v-0.062c0-0.739-0.599-1.338-1.338-1.338h-1.018l-0.134-7.302
				c1.411,2.977,2.449,6.47,3.418,9.743c1.049,3.543,1.955,6.603,3.219,8.657c2.091,3.399,4.953,5.618,8.058,6.25
				c0.621,0.126,1.246,0.189,1.873,0.189c2.159-0.001,4.334-0.745,6.379-2.198c3.889-2.763,4.041-10.005,3.585-15.162
				c0.124-3.484-0.579-6.409-0.644-6.671c-0.012-0.046-0.043-0.08-0.059-0.124c0.562-0.618,1.009-1.316,1.324-2.093
				c0.923-2.279,0.587-4.908-0.889-7.482c1.027-1.179,1.698-2.483,1.922-3.859c0.283-1.743-0.224-3.382-1.39-4.752
				c0.413-0.696,0.69-1.425,0.803-2.179c0.349-2.323-0.934-4.434-3.508-5.828c0.302-0.587,0.471-1.204,0.471-1.853
				c0-1.726-1.134-3.232-3.064-4.51c0-0.014-0.003-0.043-0.003-0.055c0-0.904,4.295-5.877,4.295-5.877l5.651,1.13
				c0,0,2.939,12.206,3.391,15.823c0.452,3.617,2.938,11.754,4.747,18.988c1.808,7.233,1.356,15.597,1.356,15.597
				s-2.486-0.678-2.712,2.486c-0.226,3.165,0.226,3.165,0.904,4.973c0.4,1.067,0.497,1.578,1.01,1.914
				c-0.706,0.76-1.161,1.707-1.236,2.832c-0.226,3.391,2.034,6.555,2.034,6.555s1.13,3.391,2.26,13.789
				c1.13,10.398,4.747,20.344,6.329,24.865c0.765,2.185,1.161,3.363,1.646,4.129c-0.524,1.355-1.926,3.872-0.742,6.043
				c0.226,0.415,0.534,0.695,0.897,0.884c-0.053,0.525-0.229,2.031-0.714,4.553c-0.33,1.714-0.402,3.201-0.235,4.298
				c-0.357-0.027-0.622-0.012-0.622-0.012s0,0-0.123,0.98c-0.123,0.98-0.49,3.062,0.612,6.246c0.746,2.156,0.708,2.795,1.022,3.135
				c-0.31,0.163-0.533,0.294-0.533,0.294s0,0,0.122,0.857c0.123,0.857,0.735,1.96,1.347,3.552c0.612,1.592,0.857,1.225,1.592,0.857
				c0.735-0.368-0.122-6.124-0.122-6.124c-0.031-0.039-0.091-0.048-0.137-0.071c0.109-0.486,0.109-1.048,0.014-1.521
				c-0.245-1.225-0.367-3.797-0.367-4.899c0-0.614-0.303-1.297-0.572-1.788c0.207-0.395,0.342-1.04,0.45-2.008
				c0.245-2.205,0.735-8.083,0.735-8.083c-0.002-0.022-0.013-0.033-0.016-0.054c0.796-0.125,1.666-0.362,2.566-0.633
				c-0.061,0.045-0.101,0.075-0.101,0.075s0.49,3.797,0.735,5.511c0.245,1.715-0.123,3.307,0.735,4.776c0,0,0,0,0.245,1.715
				c0.245,1.715,0.857,2.327,1.47,3.307c0.612,0.98,0.367,1.592,0.735,3.429c0.132,0.658,0.297,1.073,0.52,1.31
				c-0.073,0.14-0.128,0.282-0.153,0.404c-0.122,0.612,0.245,1.715,0.857,3.552c0.173,0.518,0.276,0.94,0.367,1.291
				c-0.285-0.029-0.49-0.066-0.49-0.066s0.245,5.021,1.592,6.369s1.347-0.857,1.715-2.082c0.296-0.987-0.283-3.645-0.518-4.638
				c0.076-1.064-0.086-2.363-0.216-3.078c-0.245-1.347-1.225-1.96-1.225-1.96c1.47-0.735,0.49-2.082,0-3.184
				c-0.49-1.102-0.612-2.327-0.735-4.164c-0.122-1.837-1.225-2.082-1.225-2.082c-0.046-0.069-0.102-0.103-0.152-0.159
				c0.325-0.347,0.572-0.788,0.642-1.31c0.245-1.837-1.102-3.797-1.225-4.286c-0.095-0.382-0.117-2.84-0.276-4.494
				c0.577,0.6,1.671,1.305,2.087,2.692c0.678,2.26,0.678,3.165,1.13,5.877c0.124,0.746,0.388,1.228,0.715,1.522
				c-0.022,0.035-0.036,0.06-0.036,0.06s0.452,4.295,0.452,6.329c0,0.958,0.153,2.367,0.478,3.685l-0.251-0.069
				c0,0-0.226,4.973,1.13,7.912c1.356,2.939,2.035,0.452,2.035-1.582c0-1.087-0.194-2.623-0.374-3.821
				c0.44-2.259-0.078-7.917-0.078-9.289c0-1.808-0.678-3.843-0.678-3.843c0.678-1.13-1.13-4.747-2.034-6.781
				c-0.904-2.034,0-5.651,0-5.651s1.13,1.809,2.034,3.165c-1.356-0.452,3.617,5.425,4.747,7.007
				c0.757,1.059,1.918,1.606,2.875,1.042c0.024,0.031,0.038,0.056,0.064,0.089c0.904,1.13,4.521,1.356,5.651-0.452
				c1.13-1.808-4.521-1.356-4.521-1.356c0.904-2.712-0.904-1.13-2.034-2.487c-1.13-1.356-2.487-3.391-2.487-3.391
				c1.13-1.356-4.069-5.651-4.747-6.103c-0.678-0.452-4.747-4.295-4.747-4.295c-0.678-2.26-3.391-2.26-4.069-5.651
				c-0.678-3.391-5.199-36.393-5.199-37.297c0-0.904,0.452-1.356,0.678-3.391c0.175-1.578-1.16-3.551-3.556-4.468
				c0.051-0.095,0.125-0.177,0.165-0.279c0.904-2.26,1.13-3.391,0-6.781c-1.13-3.391-1.809-6.329-2.26-7.911
				c-0.452-1.582-7.686-36.393-7.911-40.01c-0.226-3.617,2.486-7.007,0.904-10.398c-1.582-3.391-4.747-3.617-5.425-3.391
				c-0.645,0.215-0.478-1.202-3.176-1.731c-0.092-1.152-1.045-2.062-2.221-2.062c-0.631,0-1.198,0.263-1.605,0.682
				c-1.124-0.113-4.252-0.335-11.529-0.335c-2.021,0-3.85,0.161-5.501,0.41c-1.624-1.993-4.575-3.573-8.293-4.426
				c0.266-0.244,0.438-0.588,0.438-0.977v-0.788c0-0.739-0.599-1.338-1.338-1.338h-2.219l-0.025-1.326h0.808
				c0.739,0,1.338-0.599,1.338-1.338c0-0.739-0.599-1.338-1.338-1.338h-0.857l-0.067-3.647c0.82-0.178,1.575-0.441,2.206-0.785
				c2.404-1.311,6.774-4.152,7.429-6.774c0.656-2.622,0.874-9.615,0.874-9.615s3.278-2.185,3.496-7.211
				c0.219-5.026,2.622-10.27,0.437-17.918c-2.185-7.648-13.329-13.111-21.851-10.707c0,0-6.118,0.874-9.833,5.244
				c-3.715,4.37-4.214,5.307-3.933,8.959c0.219,2.841,0.874,8.522,0.437,11.363c-0.437,2.841,1.092,6.337,2.404,7.211
				c1.311,0.874,1.748,1.967,1.748,1.967s-0.219,8.303,1.311,10.27c1.53,1.967,4.807,5.244,7.866,6.992
				c0.624,0.357,1.3,0.612,1.992,0.813l-0.097,3.838h-0.634c-0.739,0-1.338,0.599-1.338,1.338c0,0.739,0.599,1.338,1.338,1.338
				h0.567l-0.034,1.326h-1.969c-0.739,0-1.338,0.599-1.338,1.338v0.788c0,0.297,0.116,0.557,0.279,0.779
				c-4.11,0.775-7.402,2.405-9.188,4.52c-1.454-0.187-3.035-0.305-4.756-0.305c-7.277,0-10.405,0.222-11.529,0.335
				c-0.407-0.419-0.974-0.682-1.605-0.682c-1.168,0-2.117,0.898-2.219,2.04c-2.824,0.51-2.646,1.971-3.3,1.753
				c-0.678-0.226-3.843,0-5.425,3.391c-1.582,3.391,1.13,6.781,0.904,10.398c-0.226,3.617-7.459,38.428-7.912,40.01
				c-0.452,1.582-1.13,4.521-2.26,7.911c-1.13,3.391-0.904,4.521,0,6.781c0.041,0.102,0.114,0.184,0.165,0.279
				c-2.396,0.917-3.731,2.889-3.556,4.468c0.226,2.034,0.678,2.487,0.678,3.391c0,0.904-4.521,33.907-5.199,37.297
				c-0.678,3.391-3.391,3.391-4.069,5.651c0,0-4.069,3.843-4.747,4.295c-0.678,0.452-5.877,4.747-4.747,6.103
				c0,0-1.356,2.034-2.487,3.391c-1.13,1.356-2.938-0.226-2.034,2.487c0,0-5.651-0.452-4.521,1.356
				C210.152,288.212,213.769,287.986,214.673,286.856z M343.034,226.728c1.13,2.486,2.261,6.781,4.295,18.309
				c2.034,11.528,2.487,18.988,2.487,18.988s-3.391-9.72-4.973-15.597c-1.582-5.877-2.939-18.31-2.939-18.31L343.034,226.728z
				 M266.852,167.511c-0.064,0.761-0.125,1.618-0.167,2.505c-0.127,0.035-0.255,0.068-0.378,0.105
				c-0.229-0.339-0.369-0.672-0.369-0.99C265.938,168.617,266.261,168.068,266.852,167.511z M265.566,173.199
				c0.042-0.021,0.089-0.04,0.131-0.061c0.302,0.234,0.627,0.462,0.979,0.683c0.045,0.764,0.13,1.477,0.26,2.11
				c-1.182,0.295-2.259,0.684-3.161,1.198c-0.084,0.048-0.154,0.103-0.235,0.153c-0.139-0.292-0.231-0.579-0.273-0.856
				C263.032,174.861,264.387,173.807,265.566,173.199z M263.204,181.019c0.824,0.736,1.824,1.406,2.979,1.99
				c-1.034,0.673-1.921,1.394-2.597,2.164c-0.025,0.028-0.043,0.057-0.068,0.085c-0.462-0.662-0.744-1.32-0.843-1.931
				C262.526,182.41,262.775,181.649,263.204,181.019z M274.247,185.24c-1.025,0.465-2.041,0.966-3.024,1.516
				c-1.157,0.647-2.185,1.319-3.101,2.007c-1.081-0.49-2.013-1.042-2.771-1.631c0.067-0.08,0.123-0.16,0.193-0.24
				c0.834-0.95,2.139-1.834,3.704-2.651c0.989,0.311,2.039,0.574,3.15,0.774C273.013,185.126,273.63,185.193,274.247,185.24z
				 M273.222,182.498c4.327-1.622,9.362-2.836,12.943-3.544c-0.034,0.468-0.063,0.916-0.089,1.353
				C282.432,181.859,277.718,183.196,273.222,182.498z M268.567,191.765c1.065,0.38,2.206,0.696,3.413,0.936
				c1.155,0.23,2.315,0.332,3.469,0.332c3.252,0,6.436-0.822,9.254-1.921c-2.473,2.751-6.617,7.28-14.598,6.639
				c-2.081-0.168-3.758-0.699-4.963-1.528C265.804,194.675,266.961,193.17,268.567,191.765z M263.88,189.316
				c0.631,0.472,1.335,0.908,2.094,1.309c-1.129,1.121-1.998,2.268-2.632,3.415C262.807,192.652,263.014,191.01,263.88,189.316z
				 M278.903,213.528c-1.71,2.778-3.968,4.575-6.359,5.062c-2.061,0.422-4.157-0.111-6.223-1.58
				c-1.192-0.847-1.893-2.488-2.274-4.469c0.994,1.191,2.308,2.198,4.046,2.882c1.398,0.55,2.664,0.795,3.815,0.794
				c4.117,0,6.755-3.128,8.654-6.577C280.037,211.199,279.498,212.561,278.903,213.528z M263.967,205.259
				c0.997,1.02,2.395,1.777,4.108,2.181c0.99,0.233,2.039,0.345,3.098,0.345c3.07,0,6.22-0.939,8.23-2.577
				c0.224-0.182,0.453-0.389,0.683-0.599c-2.818,6.382-5.365,10.622-11.041,8.389C265.589,211.638,264.328,208.392,263.967,205.259z
				 M284.629,195.327c-2.283,2.921-4.871,6.231-6.871,7.861c-2.093,1.706-5.999,2.443-9.085,1.716
				c-1.234-0.291-2.841-0.941-3.495-2.387c-0.469-1.038-0.687-2.094-0.691-3.149c0.022-0.114,0.044-0.242,0.065-0.347
				c0.008-0.041-0.004-0.08,0-0.12c1.457,0.774,3.245,1.276,5.341,1.445c0.599,0.048,1.177,0.071,1.739,0.071
				c7.617,0,11.959-4.223,14.495-7.001C285.648,194.024,285.148,194.664,284.629,195.327z M272.487,190.145
				c-0.463-0.092-0.877-0.215-1.307-0.327c0.421-0.268,0.857-0.532,1.316-0.788c4.428-2.477,9.635-4.027,13.479-4.93
				c0.03,0.871,0.119,1.486,0.289,1.754c0.273,0.428,0.57,0.862,0.869,1.285C283.208,189.155,277.674,191.177,272.487,190.145z
				 M287.029,148.768c-0.44-0.219-0.972-0.464-1.602-0.72c1.323-0.19,2.724-0.329,4.199-0.406l-0.021,0.817
				C288.732,148.347,287.816,148.387,287.029,148.768z M285.646,154.993c-0.437-0.117-0.853-0.247-1.255-0.385
				c0.048-0.063,0.099-0.125,0.145-0.188c0.285-0.031,0.588-0.052,0.879-0.08C285.484,154.561,285.561,154.779,285.646,154.993z
				 M287.356,237.57l-0.038,1.487c-0.627-0.47-1.29-0.959-2.028-1.487H287.356z M285.891,270.091
				c-0.997,1.794-2.193,2.193-5.183,0.199c-2.99-1.993-2.193-5.781-0.997-6.379c1.196-0.598,7.177,1.395,7.177,1.395
				S286.888,268.297,285.891,270.091z M303.633,270.291c-2.99,1.993-4.187,1.595-5.183-0.199c-0.997-1.794-0.997-4.784-0.997-4.784
				s5.981-1.993,7.177-1.395C305.826,264.51,306.623,268.297,303.633,270.291z M300.314,237.57
				c-1.067,0.764-2.004,1.461-2.842,2.102l-0.039-2.102H300.314z M299.806,195.328c-1.078-1.38-2.078-2.657-2.988-3.737
				c-0.078-0.106-0.158-0.21-0.238-0.314v-0.007c0.452,0.419,0.908,0.863,1.352,1.356l0.156,0.174
				c2.44,2.715,6.848,7.619,15.055,7.619c0.562,0,1.141-0.023,1.739-0.071c1.939-0.156,3.611-0.602,5.008-1.279
				c0.018,0.091,0.037,0.2,0.056,0.297c-0.003,1.056-0.221,2.113-0.691,3.152c-0.653,1.446-2.261,2.096-3.495,2.387
				c-3.086,0.728-6.991-0.01-9.085-1.716C304.676,201.559,302.089,198.249,299.806,195.328z M299.888,151.806
				c-0.011-0.001-0.023-0.002-0.034-0.004c-0.026-0.262-0.076-0.521-0.15-0.776c0.501-0.241,1.139-0.519,1.907-0.806
				C300.852,150.56,300.104,151.068,299.888,151.806z M300.521,154.482c-0.374,0.137-0.763,0.265-1.169,0.383
				c0.062-0.163,0.122-0.326,0.175-0.492C299.864,154.408,300.194,154.444,300.521,154.482z M298.133,148.89
				c-0.703-0.41-1.526-0.523-2.343-0.473l-0.013-0.724c1.399,0.096,2.731,0.246,3.984,0.445
				C299.113,148.41,298.565,148.668,298.133,148.89z M316.513,188.921c-0.966-0.743-2.057-1.469-3.302-2.165
				c-0.966-0.541-1.964-1.033-2.972-1.491c0.776-0.04,1.552-0.11,2.327-0.249c1.067-0.192,2.077-0.444,3.031-0.738
				c1.533,0.807,2.813,1.679,3.635,2.615c0.096,0.109,0.174,0.22,0.265,0.329C318.681,187.839,317.688,188.419,316.513,188.921z
				 M319.362,196.396c-1.182,0.727-2.76,1.199-4.69,1.354c-8.047,0.645-12.179-3.948-14.646-6.693l-0.054-0.06
				c3.879,1.552,8.49,2.599,13.014,1.703c1.065-0.212,2.074-0.487,3.03-0.809C317.604,193.313,318.733,194.834,319.362,196.396z
				 M298.874,180.299c-0.026-0.424-0.054-0.858-0.086-1.31c3.583,0.715,8.549,1.921,12.818,3.527
				C307.146,183.165,302.483,181.838,298.874,180.299z M298.971,184.22c3.785,0.918,8.729,2.437,12.969,4.809
				c0.513,0.287,0.994,0.583,1.46,0.885c-0.31,0.075-0.595,0.166-0.922,0.231c-5.191,1.035-10.731-0.993-14.656-3.013
				c0.298-0.422,0.594-0.853,0.866-1.28C298.849,185.598,298.937,185.025,298.971,184.22z M318.115,217.01
				c-2.067,1.469-4.159,2.002-6.224,1.58c-2.391-0.486-4.649-2.284-6.358-5.062c-0.594-0.966-1.134-2.327-1.658-3.885
				c1.898,3.448,4.536,6.574,8.653,6.574c1.151,0,2.418-0.244,3.815-0.794c1.738-0.684,3.052-1.692,4.046-2.882
				C320.008,214.521,319.307,216.163,318.115,217.01z M315.388,212.998c-5.679,2.234-8.224-2.008-11.041-8.389
				c0.23,0.21,0.459,0.417,0.682,0.599c2.011,1.638,5.16,2.577,8.23,2.577c1.058,0,2.108-0.111,3.098-0.345
				c1.714-0.404,3.112-1.161,4.109-2.182C320.107,208.392,318.846,211.638,315.388,212.998z M321.415,194.107
				c-0.038,0.093-0.095,0.176-0.139,0.265c-0.615-1.197-1.48-2.395-2.628-3.567c0.839-0.421,1.607-0.888,2.299-1.393
				C321.785,191.098,321.972,192.731,321.415,194.107z M322.29,183.327c-0.105,0.646-0.428,1.345-0.939,2.046
				c-0.056-0.066-0.101-0.134-0.159-0.2c-0.659-0.75-1.519-1.453-2.519-2.111c1.201-0.597,2.239-1.285,3.088-2.043
				C322.19,181.648,322.439,182.41,322.29,183.327z M318.633,173.323c0.135-0.099,0.259-0.2,0.385-0.301
				c0.129,0.058,0.26,0.114,0.381,0.177c1.179,0.608,2.534,1.662,2.299,3.227c-0.042,0.278-0.134,0.565-0.273,0.856
				c-0.081-0.049-0.151-0.105-0.235-0.153c-0.825-0.47-1.793-0.838-2.857-1.123C318.501,175.22,318.595,174.303,318.633,173.323z
				 M321.466,148.52c-0.899,0.366-1.488,0.675-1.488,0.675s-2.961-0.668-6.71-0.839C317.182,148.365,319.791,148.44,321.466,148.52z
				 M317.069,178.359c0.994,0.231,1.888,0.538,2.639,0.936c-0.975,0.8-2.283,1.551-3.926,2.159c-3.052-1.465-6.695-2.636-10.01-3.52
				c1.492-0.113,3.085-0.19,4.674-0.192C312.074,179.185,315.299,179.755,317.069,178.359z M308.178,171.761
				c0.278,1.004,0.536,1.924,0.759,2.7c-2.899,0.685-6.382,1.223-10.392,1.503c-0.093-1.069-0.193-2.169-0.297-3.276
				C299.241,172.535,303.537,171.912,308.178,171.761z M306.75,166.565c-2.538,0.616-5.534,1.096-8.944,1.349
				c-0.124-1.381-0.236-2.702-0.322-3.9c2.36-0.231,4.547-0.618,6.519-1.138c0.613,0.088,1.22,0.179,1.798,0.279
				C306.103,164.226,306.425,165.385,306.75,166.565z M304.155,158.011c0.13,0.173,0.377,0.872,0.696,1.902
				c-0.352,0.113-0.721,0.22-1.096,0.325c-2.078-0.285-4.24-0.491-6.427-0.616c0.026-0.635,0.091-1.09,0.212-1.293
				c0.078-0.13,0.163-0.27,0.251-0.416c1.766-0.337,3.389-0.823,4.798-1.447C303.28,157.126,303.897,157.667,304.155,158.011z
				 M302.909,146.076c-2.174-0.498-4.595-0.833-7.18-0.996l-0.023-1.228C298.675,144.219,301.155,145.04,302.909,146.076z
				 M301.042,253.745c3.588-2.592,4.784-0.598,4.784,1.794c0,2.392-0.797,3.987-0.797,3.987l-12.16,5.183
				C292.868,264.709,297.453,256.336,301.042,253.745z M300.831,99.539c2.437,0,4.413,1.976,4.413,4.413
				c0,2.437-1.975,4.413-4.413,4.413c-2.437,0-5.406-2.968-5.406-5.406C295.426,100.521,298.394,99.539,300.831,99.539z
				 M284.394,108.364c-2.437,0-4.413-1.976-4.413-4.413c0-2.437,1.976-4.413,4.413-4.413c2.437,0,5.405,0.983,5.405,3.42
				C289.8,105.396,286.831,108.364,284.394,108.364z M290.572,110.019c0.993-1.434,1.875-3.53,1.875-3.53
				c0.993-0.772,1.655,2.537,2.648,4.523c0.993,1.986-0.11,2.979-0.552,3.53c-0.441,0.551-3.641,0.441-4.302-0.552
				C289.579,112.997,289.579,111.453,290.572,110.019z M291.473,264.709l-12.16-5.183c0,0-0.797-1.595-0.797-3.987
				c0-2.392,1.196-4.386,4.784-1.794C286.888,256.336,291.473,264.709,291.473,264.709z M289.725,143.757l-0.032,1.269
				c-2.91,0.136-5.619,0.497-8.032,1.05C283.582,144.941,286.37,144.061,289.725,143.757z M285.298,150.838
				c-0.057,0.165-0.098,0.333-0.133,0.501c-0.862-1.271-3.357-1.692-3.357-1.692c-0.292-0.121-0.598-0.221-0.902-0.322
				C282.789,149.802,284.264,150.367,285.298,150.838z M281.13,158.011c0.23-0.307,0.754-0.778,1.353-1.344
				c1.407,0.575,2.995,1.029,4.727,1.329c0.07,0.116,0.138,0.228,0.201,0.333c0.12,0.2,0.185,0.648,0.212,1.273
				c-2.317,0.122-4.609,0.335-6.808,0.636c-0.15-0.042-0.293-0.087-0.44-0.13C280.722,158.973,280.992,158.195,281.13,158.011z
				 M279.518,163.036c0.343-0.055,0.694-0.108,1.049-0.159c2.078,0.547,4.391,0.952,6.897,1.178
				c-0.086,1.195-0.198,2.512-0.322,3.888c-3.268-0.225-6.164-0.658-8.651-1.219C278.844,165.445,279.192,164.186,279.518,163.036z
				 M277.104,171.772c4.499,0.168,8.606,0.761,9.598,0.913c-0.104,1.118-0.206,2.229-0.299,3.308
				c-0.87-0.057-1.717-0.125-2.539-0.205c-0.707-0.09-1.495-0.183-2.348-0.268c-1.898-0.246-3.633-0.554-5.214-0.904
				C276.536,173.813,276.809,172.839,277.104,171.772z M274.835,177.747c1.431,0.01,2.861,0.078,4.211,0.177
				c-3.298,0.877-6.924,2.04-9.974,3.494c-1.594-0.601-2.86-1.34-3.815-2.123c0.814-0.432,1.797-0.756,2.891-0.992
				C269.901,179.768,273.185,179.204,274.835,177.747z M272.012,148.356c-3.747,0.172-6.705,0.839-6.705,0.839
				s-0.584-0.306-1.475-0.67C265.485,148.444,268.083,148.366,272.012,148.356z M237.956,245.038
				c2.035-11.528,3.165-15.823,4.295-18.309l1.13,3.39c0,0-1.356,12.432-2.938,18.31c-1.582,5.877-4.973,15.597-4.973,15.597
				S235.921,256.566,237.956,245.038z"/>
			<path style="fill:#FFFFFF;" d="M307.437,169.068c0.011,0.038,0.021,0.076,0.031,0.114c-0.22,0.009-0.438,0.019-0.655,0.029
				C307.021,169.164,307.232,169.118,307.437,169.068z"/>
			<path style="fill:#FFFFFF;" d="M303.477,149.647c0,0-0.232,0.04-0.573,0.127c0.381-0.12,0.777-0.239,1.203-0.352
				C303.896,149.497,303.681,149.563,303.477,149.647z"/>
			<path style="fill:#FFFFFF;" d="M318.632,169.131c0,0.096-0.04,0.195-0.061,0.293c-0.017-0.293-0.036-0.578-0.056-0.858
				C318.592,168.758,318.632,168.947,318.632,169.131z"/>
		</g>
		
			<rect x="207.109" y="66.372" style="fill:none;stroke:#000000;stroke-linecap:round;stroke-linejoin:round;stroke-miterlimit:10;" width="169.968" height="276.793"/>
		<line style="fill:none;stroke:#000000;stroke-miterlimit:10;" x1="243.323" y1="213.368" x2="221.53" y2="198.355"/>
		<line style="fill:none;stroke:#000000;stroke-miterlimit:10;" x1="263.179" y1="152.346" x2="254.462" y2="121.835"/>
		<line style="fill:none;stroke:#000000;stroke-miterlimit:10;" x1="304.829" y1="92.777" x2="330.012" y2="87.45"/>
		<line style="fill:none;stroke:#000000;stroke-miterlimit:10;" x1="331.95" y1="153.315" x2="331.95" y2="123.772"/>
		<line style="fill:none;stroke:#000000;stroke-miterlimit:10;" x1="234.606" y1="123.288" x2="245.745" y2="123.288"/>
		<line style="fill:none;stroke:#000000;stroke-miterlimit:10;" x1="336.793" y1="87.45" x2="348.416" y2="87.45"/>
		<line style="fill:none;stroke:#000000;stroke-miterlimit:10;" x1="212.328" y1="194.964" x2="223.467" y2="194.964"/>
		<line style="fill:none;stroke:#000000;stroke-miterlimit:10;" x1="270.444" y1="325.241" x2="233.637" y2="325.241"/>
		<line style="fill:none;stroke:#000000;stroke-miterlimit:10;" x1="219.592" y1="327.178" x2="227.826" y2="327.178"/>
	</g>
</g>
<g id="Plant">
	<g>
		<g>
			<rect x="75.396" y="290.625" style="fill:#263238;" width="4.626" height="149.78"/>
			<path style="fill:#92E3A9;" d="M77.025,297.823c0,0,4.469-16.478,9.579-27.505c5.11-11.027,29.057-23.295,31.154-18.512
				s0.957,13.349-5.717,25.86C105.367,290.177,77.025,297.823,77.025,297.823z"/>
			<path style="fill:#92E3A9;" d="M77.899,289.975c0,0-6.744-15.826-9.521-27.521c-2.777-11.696,9.089-34.231,13.826-31.407
				c4.737,2.824,9.212,10.434,11.645,24.16C96.283,268.934,77.899,289.975,77.899,289.975z"/>
			<path style="fill:#92E3A9;" d="M78.385,297.973c0,0-2.261-16.846-5.878-28.351c-3.617-11.505-25.771-26.296-28.483-21.777
				c-2.713,4.52-2.713,13.148,2.261,26.296S78.385,297.973,78.385,297.973z"/>
			<path style="fill:#92E3A9;" d="M77.441,319.591c0,0,8.831-14.953,16.794-24.482c7.963-9.529,34.512-16.009,35.236-10.903
				c0.724,5.106-2.72,13.147-12.603,23.76C106.985,318.578,77.441,319.591,77.441,319.591z"/>
			<path style="fill:#92E3A9;" d="M79.055,319.591c0,0-8.831-14.953-16.794-24.482c-7.963-9.529-34.512-16.009-35.236-10.903
				c-0.724,5.106,2.72,13.147,12.603,23.76C49.511,318.578,79.055,319.591,79.055,319.591z"/>
			<path style="fill:#92E3A9;" d="M77.441,349.174c0,0,8.831-14.953,16.794-24.482c7.963-9.529,34.512-16.009,35.236-10.903
				c0.724,5.106-2.72,13.147-12.603,23.76S77.441,349.174,77.441,349.174z"/>
			<path style="fill:#92E3A9;" d="M79.055,349.174c0,0-8.831-14.953-16.794-24.482c-7.963-9.529-34.512-16.009-35.236-10.903
				c-0.724,5.106,2.72,13.147,12.603,23.76S79.055,349.174,79.055,349.174z"/>
			<path style="fill:#92E3A9;" d="M77.441,378.757c0,0,8.831-14.953,16.794-24.482c7.963-9.529,34.512-16.009,35.236-10.903
				c0.724,5.106-2.72,13.147-12.603,23.76C106.985,377.745,77.441,378.757,77.441,378.757z"/>
			<path style="fill:#92E3A9;" d="M79.055,378.757c0,0-8.831-14.953-16.794-24.482c-7.963-9.529-34.512-16.009-35.236-10.903
				c-0.724,5.106,2.72,13.147,12.603,23.76C49.511,377.745,79.055,378.757,79.055,378.757z"/>
			<path style="fill:#92E3A9;" d="M77.441,408.34c0,0,8.831-14.953,16.794-24.482s34.512-16.009,35.236-10.903
				c0.724,5.106-2.72,13.147-12.603,23.76S77.441,408.34,77.441,408.34z"/>
			<path style="fill:#92E3A9;" d="M79.055,408.34c0,0-8.831-14.953-16.794-24.482s-34.512-16.009-35.236-10.903
				c-0.724,5.106,2.72,13.147,12.603,23.76S79.055,408.34,79.055,408.34z"/>
			<path style="fill:#92E3A9;" d="M77.441,431.76c0,0,8.831-14.953,16.794-24.482s34.512-16.009,35.236-10.903
				c0.724,5.106-2.72,13.147-12.603,23.76S77.441,431.76,77.441,431.76z"/>
			<path style="fill:#92E3A9;" d="M79.055,431.76c0,0-8.831-14.953-16.794-24.482s-34.512-16.009-35.236-10.903
				c-0.724,5.106,2.72,13.147,12.603,23.76S79.055,431.76,79.055,431.76z"/>
		</g>
		<path style="fill:none;stroke:#263238;stroke-miterlimit:10;" d="M79.055,317.873c0,0,26.255-12.19,36.814-24.12"/>
		<path style="fill:none;stroke:#263238;stroke-miterlimit:10;" d="M75.916,317.354c0,0-15.696-8.559-28.538-19.192"/>
		<path style="fill:none;stroke:#263238;stroke-miterlimit:10;" d="M77.025,297.823c0,0-16.235-22.743-20.515-30.264"/>
		<line style="fill:none;stroke:#263238;stroke-miterlimit:10;" x1="78.385" y1="297.973" x2="103.883" y2="268.078"/>
		<polyline style="fill:none;stroke:#263238;stroke-miterlimit:10;" points="71.35,265.225 78.77,293.235 80.482,249.923 		"/>
		<path style="fill:none;stroke:#263238;stroke-miterlimit:10;" d="M112.73,323.838c-8.561,9.077-35.289,25.335-35.289,25.335
			s-24.07-15.221-35.486-23.779"/>
		<path style="fill:none;stroke:#263238;stroke-miterlimit:10;" d="M39.672,353.145c0,0,19.603,17.768,37.769,25.612
			c0,0,18.737-13.941,34.433-23.278"/>
		<path style="fill:none;stroke:#263238;stroke-miterlimit:10;" d="M111.303,384.526c-16.552,16.599-33.862,23.814-33.862,23.814
			s-14.653-10.328-31.49-22.258"/>
		<path style="fill:none;stroke:#263238;stroke-miterlimit:10;" d="M42.526,410.461c0,0,20.744,16.663,34.915,21.299"/>
		<path style="fill:none;stroke:#263238;stroke-miterlimit:10;" d="M79.055,431.76c0,0,17.694-9.628,30.821-20.002"/>
	</g>
</g>
<g id="Characters">
	<g>
		<g>
			<path style="fill:#263238;stroke:#263238;stroke-linecap:round;stroke-linejoin:round;stroke-miterlimit:10;" d="M152.377,228.13
				c0,0,8.111,0.438,9.442,0.801c1.331,0.363,7.372,0.764,7.372,0.764s-7.735,7.342-8.34,7.584
				c-0.605,0.242-1.573,0.121-3.993-1.452C154.438,234.255,152.377,228.13,152.377,228.13z"/>
			<polygon style="fill:#E3E3E3;stroke:#263238;stroke-miterlimit:10;" points="244.461,440.419 269.193,440.419 256.509,388.448 
				251.801,352.28 233.852,352.136 235.846,407.061 			"/>
			<path style="fill:#FFFFFF;stroke:#263238;stroke-miterlimit:10;" d="M243.702,289.352l8.1,62.928h-14.33
				C237.471,352.28,239.652,287.483,243.702,289.352z"/>
			<g>
				<path style="fill:#FFFFFF;stroke:#263238;stroke-linecap:round;stroke-linejoin:round;stroke-miterlimit:10;" d="
					M125.545,397.013l5.394,43.406h120.179l-10.617-66.292l1.315-47.613c0,0,2.63-40.248,1.841-46.298
					c-0.789-6.05-2.25-9.442-4.209-11.311c-14.159-13.509-31.554-21.555-33.533-24.719c-1.98-3.165-8.03-5.269-8.03-5.269
					l-23.938-0.263l-17.333-4.561l-4.238-5.961c0,0-6.84,8.944-7.102,9.733c-0.263,0.789-26.306,29.725-27.621,37.617
					c-1.315,7.892-0.526,33.145,0,50.507C118.179,343.349,125.545,397.013,125.545,397.013z"/>
				<line style="fill:none;stroke:#263238;stroke-miterlimit:10;" x1="134.692" y1="430.382" x2="181.819" y2="394.375"/>
				<line style="fill:none;stroke:#263238;stroke-miterlimit:10;" x1="174.935" y1="394.64" x2="152.431" y2="412.114"/>
			</g>
			<g>
				<path style="fill:#E3E3E3;stroke:#263238;stroke-miterlimit:10;" d="M164.961,206.723l1.165,21.739l-9.511,5.629
					c0,0,12.422,9.705,17.857,17.469c5.435,7.764,18.828,23.098,25.621,22.516c6.793-0.582,8.152-15.916,7.182-21.157
					c-0.97-5.241-1.359-8.734-1.359-8.734l-0.776-2.717c0,0-11.258-2.523-16.304-6.405c-5.047-3.882-20.963-28.533-21.933-29.115
					C165.931,205.365,164.961,206.723,164.961,206.723z"/>
				<line style="fill:#FFFFFF;stroke:#263238;stroke-miterlimit:10;" x1="166.125" y1="228.462" x2="166.125" y2="236.421"/>
				<path style="fill:none;stroke:#263238;stroke-miterlimit:10;" d="M205.915,244.184c0,0-2.911,6.988-2.911,8.734
					c0,1.747,0.388,7.376,1.747,9.511"/>
			</g>
			<g>
				<path style="fill:#E3E3E3;stroke:#263238;stroke-miterlimit:10;" d="M224.161,179.356c0,0,1.359,11.064,1.165,13.587
					c-0.194,2.523-1.747,12.034-2.135,14.946c-0.388,2.911-0.582,7.764-1.747,11.646s-7.958,16.498-8.929,18.439
					c-0.97,1.941-2.717,4.852-6.599,6.211c-3.882,1.359-12.034-0.97-14.557-1.941s-16.498-14.363-19.604-17.663
					c-3.106-3.3-6.211-15.14-6.211-15.14s-3.882-1.941-7.376-6.405c-3.494-4.464-5.047-10.287-4.27-13.393
					c0.776-3.106,1.466-5.801,3.742-6.2c2.275-0.399,5.187,0.183,6.157,0.572c0.97,0.388-3.494-16.11-3.494-16.11
					s14.557-9.317,30.279-9.511C206.304,158.199,222.802,171.786,224.161,179.356z"/>
				<path style="fill:#263238;stroke:#263238;stroke-miterlimit:10;" d="M163.979,190.576c0,0-0.528,6.605,1.321,6.605
					c1.849,0,2.906-1.849,2.906-1.849l1.057-3.699l8.19-5.02l-0.793-16.116l14.795,5.284l7.926,1.057c0,0-14.002,3.434-11.889,4.491
					c2.114,1.057,8.19,2.906,15.323,2.642c7.133-0.264,14.795-3.963,14.795-3.963s-1.849,4.491,0,3.963
					c1.849-0.528,9.511-4.227,12.945-8.454c3.434-4.227,0-10.832-3.434-16.116c-3.434-5.284-12.417-19.55-21.663-22.456
					c-9.247-2.906-24.57-1.321-29.589,1.585c-5.02,2.906-20.871,23.513-21.399,27.476c-0.528,3.963,3.17,17.437,3.17,17.437
					S164.772,188.198,163.979,190.576z"/>
				<path style="fill:none;stroke:#263238;stroke-miterlimit:10;" d="M212.709,197.019l-1.941,9.511c0,0,1.747,15.722,1.747,16.498
					s-1.747,2.717-5.241,2.523c-3.494-0.194-5.629-1.747-5.629-1.747"/>
				<path style="fill:none;stroke:#263238;stroke-miterlimit:10;" d="M214.262,196.242c0,0,6.017-2.329,8.734-0.388"/>
				<path style="fill:none;stroke:#263238;stroke-miterlimit:10;" d="M201.839,197.213c0,0-7.57-3.494-14.557-0.194"/>
				<path style="fill:none;stroke:#263238;stroke-miterlimit:10;" d="M193.105,227.88c0,0,3.3,2.135,6.211,3.106
					c2.911,0.971,9.123,0.388,9.705,0.194"/>
				<ellipse style="fill:#263238;" cx="194.658" cy="205.268" rx="1.941" ry="2.814"/>
				<path style="fill:#263238;" d="M218.532,204.977c0,1.554-0.869,2.815-1.941,2.815c-1.072,0-1.941-1.26-1.941-2.815
					c0-1.554,0.869-2.814,1.941-2.814C217.663,202.162,218.532,203.422,218.532,204.977z"/>
			</g>
		</g>
		<g>
			<path style="fill:#FFFFFF;stroke:#263238;stroke-miterlimit:10;" d="M309.792,326.782c0,0-33.936-5.358-37.508-6.634
				c-3.572-1.276-11.992-6.379-11.992-6.379s-18.371-20.668-19.902-21.688c-1.531-1.021-13.779,4.082-15.565,5.103
				c-1.786,1.021-8.165,6.124-8.42,7.4c-0.255,1.276,1.531,4.848,1.531,4.848s17.351,15.565,19.392,16.33
				c2.041,0.766,21.178,6.124,21.178,6.124s46.439,24.24,48.735,26.026c2.296,1.786,12.758,5.358,16.585,5.358
				c3.827,0,8.165-3.062,8.165-3.062l-4.848-29.088L309.792,326.782z"/>
			<polygon style="fill:#92E3A9;stroke:#263238;stroke-miterlimit:10;" points="223.993,300.079 195.929,335.008 201.38,348.737 
				227.829,353.987 245.597,314.212 232.877,301.492 			"/>
			<path style="fill:#92E3A9;stroke:#263238;stroke-miterlimit:10;" d="M314.367,332.799c5.077,3.09,10.153,5.739,10.153,5.739
				l5.739,67.761l0.427,34.12h140.211c-2.113-6.261-12.07-35.597-14.827-40.521c-3.09-5.518-10.374-37.522-10.374-37.522
				l3.752-50.324c0,0,6.122-53.474,6.122-54.357s-0.94-8.93-0.94-8.93s-50.221-29.198-56.401-30.081
				c-6.18-0.883-9.699,1.769-12.348,1.99c-2.649,0.221-22.513,1.545-27.811,3.752c-3.801,1.584-22.601,9.531-32.919,13.894
				c-4.185,1.77-7.023,5.728-7.363,10.26l-5.186,69.21c0,0-4.414,1.104-4.414,2.207c0,1.104-1.103,5.518-1.103,5.518
				S309.291,329.709,314.367,332.799z"/>
			<path style="fill:none;stroke:#263238;stroke-miterlimit:10;" d="M441.839,408.419c3.45-0.385,5.674-0.626,5.856-0.626"/>
			<path style="fill:none;stroke:#263238;stroke-miterlimit:10;" d="M394.016,413.893c0,0,28.715-3.32,44.145-5.061"/>
			<polyline style="fill:none;stroke:#263238;stroke-miterlimit:10;" points="395.541,418.163 396.151,420.908 446.78,414.503 			
				"/>
			<g>
				<ellipse style="fill:#FFFFFF;stroke:#263238;stroke-miterlimit:10;" cx="348.042" cy="295.379" rx="8.54" ry="8.881"/>
				<path style="fill:#FFFFFF;stroke:#263238;stroke-miterlimit:10;" d="M353.818,295.379c0,3.318-2.586,6.007-5.776,6.007
					s-5.776-2.69-5.776-6.007c0-3.318,2.586-6.007,5.776-6.007S353.818,292.061,353.818,295.379z"/>
				<path style="fill:none;stroke:#263238;stroke-width:2;stroke-linecap:round;stroke-miterlimit:10;" d="M361.819,220.684
					c0,0-13.664,39.853-15.258,75.834"/>
			</g>
			<g>
				<line style="fill:none;stroke:#263238;stroke-miterlimit:10;" x1="371.95" y1="265.37" x2="357.025" y2="281.36"/>
				<path style="fill:none;stroke:#263238;stroke-miterlimit:10;" d="M412.888,242.29c0.983-2.012,1.615-3.708,1.703-4.851"/>
				<path style="fill:none;stroke:#263238;stroke-miterlimit:10;" d="M371.789,292.513c8.391-8.797,22.315-23.419,25.106-26.504
					c2.677-2.958,9.356-12.06,13.703-19.495"/>
				<path style="fill:none;stroke:#263238;stroke-miterlimit:10;" d="M365.34,299.27c0,0,1.608-1.683,4.103-4.298"/>
				<path style="fill:#FFFFFF;stroke:#263238;stroke-miterlimit:10;" d="M401.772,221.557c0,0-3.368-8.025-3.676-11.26
					c-0.308-3.234-0.308-14.938-0.308-14.938c-19.405-1.54-41.273,16.786-41.273,16.786l5.544,12.782l0.257,1.659
					c-0.174,4.059-0.032,11.492,2.384,19.594c3.625,12.153,9.168,17.91,9.168,17.91s17.309-16.266,26.011-28.357
					C404.297,229.596,401.772,221.557,401.772,221.557z"/>
				<path style="fill:#263238;stroke:#263238;stroke-miterlimit:10;" d="M385.88,220.674c0,0-9.756,10.269-12.74,13.749
					c-2.983,3.481-8.701,9.696-8.701,9.696s-1.855-7.329-1.989-12.431c-0.134-5.102,0.994-9.945,0.994-9.945L385.88,220.674z"/>
			</g>
			<path style="fill:none;stroke:#263238;stroke-miterlimit:10;" d="M324.191,335.729c0,0-1.706-25.372-2.559-27.93
				c-0.853-2.559,0-41.789,2.772-56.287"/>
			<path style="fill:#263238;stroke:#263238;stroke-miterlimit:10;" d="M351.296,133.289c0,0-8.638,12.492-10.979,15.917
				c-2.342,3.425-6.073,2.289-5.411,8.059c0.662,5.77,5.295,16.196,11.165,17.93c5.871,1.734,11.293,0.111,11.293,0.111
				s32.726,13.63,34.896,16.621c2.169,2.991,4.268,10.386,4.268,10.386s8.423-0.565,11.159-1.558c2.737-0.993,6.513-4.08,6.513-4.08
				l-2.792-1.219c0,0,5.16-2.387,5.785-2.871c0.625-0.484,3.022-1.697,3.022-1.697l-4.573-5.639l-1.001-5.991
				c0,0,2.174-10.062,3.414-17.466c1.24-7.404-0.732-16.992-6.008-21.604c-5.276-4.612-26.677-14.45-37.839-14.18
				C363.047,126.279,352.755,132.158,351.296,133.289z"/>
			<g>
				<path style="fill:#FFFFFF;stroke:#263238;stroke-miterlimit:10;" d="M391.276,217.498c0,0-14.542,12.718-21.795,12.353
					c-7.253-0.366-15.647-16.171-16.738-18.772c-1.091-2.601-5.103-14.003-5.313-16.923c-0.21-2.92-1.736-20.057-1.388-22.503
					c0.348-2.446,8.489-15.646,8.489-15.646s3.773,8.685,7.744,13.044c3.971,4.36,12.46,6.307,12.46,6.307l-1.681-4.32
					c0,0,7.202,5.121,10.902,5.519c3.7,0.398,8.194,1.088,8.194,1.088s3.591,5.561,4.503,6.487c0.912,0.926,3.582-0.236,3.582-0.236
					s5.393-5.63,8.508-4.053c3.115,1.577,0.488,11.23-1.766,15.334c-2.254,4.104-7.093,7.31-7.093,7.31l-2.172,0.594
					c0,0-2.336,7.614-3.478,9.768"/>
				<path style="fill:none;stroke:#263238;stroke-miterlimit:10;" d="M361.702,200.281c0,0-0.561,3.088,0.566,4.822
					c1.133,1.744,5.226-0.059,5.226-0.059s1.146,0.744,2.496,0.061c1.35-0.683,0.701-1.994,0.701-1.994"/>
				<path style="fill:none;stroke:#263238;stroke-miterlimit:10;" d="M361.672,210.565c0,0,1.359,1.74,5.975,2.236
					c4.616,0.496,10.261-3.412,10.261-3.412"/>
				<path style="fill:none;stroke:#263238;stroke-miterlimit:10;" d="M360.997,180.794c0,0-2.597-1.71-5.969-1.541
					c-3.372,0.169-4.407,0.854-4.407,0.854"/>
				<path style="fill:none;stroke:#263238;stroke-miterlimit:10;" d="M371.257,182.134c0,0,6.554-0.889,10.266-0.623
					c3.712,0.266,6.276,2.003,6.276,2.003"/>
				<path style="fill:none;stroke:#263238;stroke-miterlimit:10;" d="M408.731,185.609c0,0-0.997-3.416-3.186-2.365
					s-4.919,5.906-4.919,5.906s1.463,1.444,1.1,2.692c-0.363,1.248-2.604,2.662-2.604,2.662"/>
				<path style="fill:none;stroke:#263238;stroke-miterlimit:10;" d="M400.626,189.149c0,0,3.648-2.182,5.476-0.698"/>
				<path style="fill:#263238;" d="M357.526,188.905c0.054,1.694-0.787,3.122-1.88,3.191c-1.093,0.069-2.023-1.248-2.077-2.942
					c-0.054-1.693,0.787-3.122,1.88-3.191C356.542,185.895,357.472,187.212,357.526,188.905z"/>
				<path style="fill:#263238;" d="M377.529,191.006c-0.057,1.697-0.989,3.072-2.082,3.071c-1.093-0.001-1.932-1.378-1.875-3.075
					c0.057-1.697,0.989-3.072,2.082-3.071C376.747,187.932,377.586,189.309,377.529,191.006z"/>
				<polyline style="fill:none;stroke:#263238;stroke-miterlimit:10;" points="361.618,183.358 362.61,188.954 362.328,197.346 				
					"/>
			</g>
			<g>
				<path style="fill:none;stroke:#263238;stroke-width:3;stroke-linecap:round;stroke-miterlimit:10;" d="M402.492,262.745
					c-1.904,8.83-3.552,15.782-3.552,15.782"/>
				<path style="fill:none;stroke:#263238;stroke-width:2;stroke-linecap:round;stroke-miterlimit:10;" d="M401.444,219.09
					c0,0,5.238,1.139,6.604,8.198c0.824,4.259-2.661,22.029-5.557,35.457"/>
				<g>
					<g>
						<path style="fill:#FFFFFF;stroke:#263238;stroke-miterlimit:10;" d="M382.089,344.019c-0.076,0-0.152-0.006-0.23-0.018
							c-0.762-0.117-3.438-0.664-5.909-2.796c-0.627-0.542-0.696-1.489-0.155-2.116c0.542-0.626,1.487-0.695,2.116-0.155
							c1.481,1.279,3.246,1.925,4.403,2.103c0.819,0.126,1.381,0.892,1.255,1.71C383.456,343.488,382.817,344.019,382.089,344.019z"
							/>
					</g>
					<g>
						<path style="fill:#FFFFFF;stroke:#263238;stroke-miterlimit:10;" d="M376.931,341.069c-0.232,0-0.464-0.08-0.653-0.243
							c-2.271-1.96-4.699-5.662-3.368-12.171c2.033-9.941,9.056-34.891,9.126-35.142c0.15-0.531,0.705-0.838,1.234-0.691
							c0.531,0.15,0.841,0.702,0.691,1.234c-0.071,0.25-7.073,25.129-9.093,34.999c-0.912,4.464,0.001,7.914,2.716,10.257
							c0.418,0.36,0.465,0.992,0.104,1.41C377.491,340.952,377.211,341.069,376.931,341.069z"/>
					</g>
					<g>
						<path style="fill:#FFFFFF;stroke:#263238;stroke-miterlimit:10;" d="M383.579,340.819c-1.982,0-4.148-0.479-6.604-1.462
							c-0.77-0.308-1.144-1.181-0.836-1.949c0.309-0.77,1.182-1.143,1.949-0.836c2.2,0.88,4.14,1.295,5.798,1.242
							c0.828-0.035,1.522,0.62,1.55,1.448c0.028,0.828-0.62,1.521-1.448,1.55C383.853,340.818,383.716,340.819,383.579,340.819z"/>
					</g>
					<g>
						<path style="fill:#FFFFFF;stroke:#263238;stroke-miterlimit:10;" d="M383.937,340.314c-0.536,0-0.979-0.426-0.998-0.966
							c-0.02-0.552,0.413-1.015,0.965-1.033c3.52-0.121,5.97-2.28,7.488-6.603c2.915-8.299,10.381-34.968,10.456-35.236
							c0.148-0.532,0.709-0.842,1.233-0.693c0.531,0.148,0.842,0.7,0.693,1.232c-0.075,0.269-7.559,27-10.495,35.359
							c-1.798,5.118-4.93,7.789-9.307,7.939C383.96,340.314,383.948,340.314,383.937,340.314z"/>
					</g>
				</g>
				<path style="fill:none;stroke:#263238;stroke-width:3;stroke-linecap:round;stroke-miterlimit:10;" d="M382.315,295.835
					c0,0,4.782-13.664,7.97-16.397c3.188-2.733,11.842-0.228,13.664,2.505c1.822,2.733-2.505,19.585-2.505,19.585"/>
			</g>
			<path style="fill:#FFFFFF;stroke:#263238;stroke-miterlimit:10;" d="M247.01,302.098c0,0-12.114-3.029-14.537-3.836
				s-9.489-6.057-10.701-4.038c-1.211,2.019,0,7.066,2.625,8.682c2.625,1.615,10.903,4.644,10.903,4.644s6.663,11.71,8.884,13.124
				s9.086,1.009,9.086,1.009"/>
		</g>
		<g>
			<g>
				<path style="fill:#263238;stroke:#263238;stroke-miterlimit:10;" d="M133.809,329.776l16.55-2.703l-9.372-15.803
					C140.988,311.271,132.144,323.108,133.809,329.776z"/>
				<path style="fill:#E3E3E3;stroke:#263238;stroke-miterlimit:10;" d="M183.483,307.198l16.724,33.723
					c0,0,22.697,7.477,33.645,11.215c10.948,3.738,34.98,13.084,40.321,13.618c5.341,0.534,13.084,0,13.084,0
					s10.414-9.613,11.482-10.147c1.068-0.534,5.608-1.869,8.278-2.136c2.67-0.267,12.016-3.204,12.016-3.204
					s5.074-4.539,5.875-1.068c0.801,3.471-2.67,6.409-4.272,7.477c-1.602,1.068-5.875,2.403-7.21,2.937
					c0,0,11.749,1.068,12.55,1.068c0.801,0,11.215-2.403,11.215-2.403s10.704-5.662,11.99-4.376
					c1.286,1.286,0.367,2.756-0.919,4.043c-1.286,1.286-2.573,3.308-2.573,3.308s-1.654,4.226-5.145,9.004
					c-3.491,4.778-12.495,12.679-13.414,13.23c-0.919,0.551-16.538,3.491-33.26,4.043c-16.722,0.551-43.55,1.286-53.289,0.919
					c-9.739-0.368-37.486-4.41-46.49-6.064c-9.004-1.654-16.538-1.838-18.008-4.961c-1.47-3.124-7.534-10.658-14.7-21.132
					c-7.166-10.474-17.273-29.768-18.008-31.789s-3.859-6.615-3.859-6.615s7.167-12.495,17.824-15.987
					C168,298.408,183.483,307.198,183.483,307.198z"/>
				<path style="fill:none;stroke:#263238;stroke-miterlimit:10;" d="M346.674,359.91c0,0-7.05,6.043-8.863,7.655
					c-1.813,1.612-4.432,3.424-5.439,3.626c-1.007,0.202-8.46,1.209-9.87,1.813"/>
				<path style="fill:none;stroke:#263238;stroke-miterlimit:10;" d="M324.919,378.039l9.065-3.626c0,0,2.82-2.014,3.626-2.619
					c0.806-0.604,4.432-3.424,4.432-3.424"/>
			</g>
			<g>
				<path style="fill:#92E3A9;stroke:#263238;stroke-miterlimit:10;" d="M241.494,354.848c-2.885-1.045-5.513-1.986-7.642-2.713
					c-10.948-3.738-33.645-11.215-33.645-11.215l-9.486-19.128c-23.238-0.556-33.465,12.455-37.65,20.963
					c2.77,4.843,5.732,9.761,8.314,13.535c7.166,10.474,13.23,18.008,14.7,21.132c1.47,3.124,9.004,3.308,18.008,4.961
					c7.946,1.459,30.482,4.778,42.363,5.79c-1.956-3.604-4.839-10.767-2.318-18.485
					C236.268,363.163,239.338,357.994,241.494,354.848z"/>
				<path style="fill:none;stroke:#263238;stroke-miterlimit:10;" d="M179.244,367.778c2.577-7.847,8.228-20.43,18.895-25.088"/>
				<path style="fill:none;stroke:#263238;stroke-miterlimit:10;" d="M177.44,374.414c0,0,0.195-1.019,0.638-2.702"/>
				<path style="fill:none;stroke:#263238;stroke-miterlimit:10;" d="M188.224,332.349c1.645-0.47,3.375-0.784,5.191-0.908"/>
				<path style="fill:none;stroke:#263238;stroke-miterlimit:10;" d="M163.941,356.864c0,0,6.111-15.207,18.56-22.126"/>
				<path style="fill:none;stroke:#263238;stroke-miterlimit:10;" d="M213.213,347.415c0,0-13.499,17.999-11.024,33.974"/>
				<path style="fill:none;stroke:#263238;stroke-miterlimit:10;" d="M220.465,377.363c-0.055,2.144,0.061,4.39,0.398,6.725"/>
				<path style="fill:none;stroke:#263238;stroke-miterlimit:10;" d="M229.638,352.364c0,0-7.071,8.042-8.805,20.533"/>
			</g>
		</g>
		<g>
			<path style="fill:#FFFFFF;stroke:#263238;stroke-miterlimit:10;" d="M126.471,266.274c0,0-6.774,17.781-5.927,23.143
				c0.847,5.362,11.289,34.997,11.572,36.126c0.282,1.129,1.693,4.234,1.693,4.234s13.265-18.91,25.966-21.732
				c12.701-2.822,23.708-0.847,23.708-0.847l-6.209-14.112c0,0-0.282-7.902-0.847-10.443c-0.564-2.54-10.443-13.547-16.934-15.241"
				/>
			<path style="fill:none;stroke:#263238;stroke-miterlimit:10;" d="M169.688,284.776c1.714,1.52,3.015,2.739,3.015,2.739"/>
			<path style="fill:none;stroke:#263238;stroke-miterlimit:10;" d="M152.943,281.374c0,0,6.943-2.937,9.079-2.403
				c0.947,0.237,3.153,1.943,5.316,3.769"/>
		</g>
		<g>
			<path style="fill:#FFFFFF;stroke:#263238;stroke-miterlimit:10;" d="M317.155,385.406c0,0-11.087-3.198-14.925-4.691
				c-3.838-1.492-11.087-5.543-13.219-6.396c-2.132-0.853-13.219,0-14.498,0c-1.279,0-6.823-1.279-7.889-0.213
				c-1.066,1.066,0.64,3.625,1.919,4.477c1.279,0.853,9.594,2.345,9.594,2.345l7.249,2.559l-14.285,2.132l-13.432,2.559
				c0,0,0.426,1.279,2.132,2.132c1.706,0.853,8.315,1.919,8.315,1.919s16.417,6.396,20.468,7.036
				c3.168,0.5,11.324,1.082,14.73,1.313c1.021,0.069,2.041,0.045,3.058-0.069c4.426-0.499,17.426-2.014,25.121-3.413
				c9.381-1.706,41.033-7.872,47.476-9.63c24.634-6.718,49.694-24.659,50.76-25.299c1.066-0.64,4.477-3.838,4.904-4.691
				c0.426-0.853,2.559-3.838,2.559-3.838l-35.18-13.219l-2.668,1.871c0,0-25.263,13.48-35.923,20.09
				c-10.661,6.609-31.555,19.189-32.834,19.828C329.308,382.848,317.155,385.406,317.155,385.406z"/>
			<g>
				<path style="fill:#92E3A9;stroke:#263238;stroke-miterlimit:10;" d="M417.223,267.466l-8.829,47.896l-5.739,7.063l-3.311,19.865
					c0,0,15.009,7.725,24.721,9.712c9.712,1.987,24.279,1.324,24.279,1.324l5.077-25.604l0.662-15.671
					c0,0,6.401-56.946,5.959-59.153c-0.441-2.207-19.644-10.153-23.396-11.257c-3.752-1.104-5.96-1.324-5.96-1.324"/>
				<path style="fill:none;stroke:#263238;stroke-miterlimit:10;" d="M418.751,310.917c7.175-3.448,18.039-8.855,21.205-11.446"/>
				<path style="fill:none;stroke:#263238;stroke-miterlimit:10;" d="M412.146,314.038c0,0,1.426-0.658,3.641-1.707"/>
				<path style="fill:none;stroke:#263238;stroke-miterlimit:10;" d="M447.682,285.124c0,0-10.595,11.919-16.995,16.112"/>
			</g>
		</g>
	</g>
</g>
<g id="Line">
	
		<line style="fill:#FFFFFF;stroke:#263238;stroke-linecap:round;stroke-linejoin:round;stroke-miterlimit:10;" x1="12.054" y1="440.419" x2="730.26" y2="440.419"/>
</g>
</svg>
